<svg width="89" height="64" viewBox="0 0 89 64" fill="none" xmlns="http://www.w3.org/2000/svg">
<path d="M0 0H89V64H0V0Z" fill="#7BFFFF" fill-opacity="0.77"/>
<path opacity="0.5" d="M38.7865 14.8227C42.0667 10.7529 43.7068 8.71804 45.5922 9.03147C47.4776 9.34489 48.3596 11.799 50.1237 16.7073L50.58 17.9772C51.0813 19.372 51.332 20.0693 51.8196 20.5831C52.3073 21.0968 52.9768 21.3687 54.3158 21.9125L55.5349 22.4076C60.2469 24.3212 62.6028 25.2781 62.8715 27.2338C63.1402 29.1895 61.1437 30.8488 57.1506 34.1676L56.1175 35.0262C54.9828 35.9693 54.4155 36.4409 54.0871 37.0863C53.7586 37.7318 53.7064 38.4781 53.6018 39.9706L53.5066 41.3295C53.1385 46.582 52.9545 49.2082 51.2352 50.1034C49.5159 50.9987 47.3999 49.5701 43.168 46.7129L42.0732 45.9738C40.8706 45.1618 40.2693 44.7559 39.5787 44.6411C38.888 44.5262 38.1862 44.7156 36.7826 45.0942L35.5047 45.439C30.5652 46.7715 28.0955 47.4378 26.7642 46.0354C25.4329 44.633 26.1217 42.0907 27.4994 37.0061L27.8558 35.6906C28.2473 34.2458 28.443 33.5233 28.3446 32.8069C28.2461 32.0905 27.8647 31.4612 27.1018 30.2027L26.4072 29.0569C23.7225 24.628 22.3801 22.4135 23.2767 20.6515C24.1732 18.8895 26.7148 18.7469 31.7982 18.4616L33.1133 18.3878C34.5578 18.3067 35.2801 18.2662 35.9099 17.9382C36.5397 17.6103 37.0058 17.032 37.9379 15.8756L38.7865 14.8227Z" fill="#2684FC"/>
<path d="M52.1603 33.4764C49.7002 30.4241 48.4702 28.8979 47.0562 29.133C45.6422 29.368 44.9807 31.2087 43.6577 34.8899L43.3155 35.8423C42.9395 36.8883 42.7515 37.4114 42.3858 37.7967C42.02 38.182 41.5179 38.3859 40.5137 38.7937L39.5994 39.1651C36.0655 40.6003 34.2986 41.3179 34.0971 42.7847C33.8956 44.2515 35.3929 45.496 38.3877 47.9851L39.1624 48.6291C40.0134 49.3364 40.439 49.69 40.6853 50.1741C40.9316 50.6582 40.9708 51.2179 41.0492 52.3374L41.1206 53.3565C41.3966 57.2958 41.5346 59.2655 42.8241 59.937C44.1135 60.6084 45.7005 59.537 48.8743 57.3941L49.6954 56.8397C50.5973 56.2308 51.0483 55.9263 51.5662 55.8402C52.0842 55.7541 52.6106 55.8961 53.6633 56.1801L54.6217 56.4386C58.3261 57.438 60.1784 57.9377 61.1768 56.8859C62.1753 55.8341 61.6587 53.9274 60.6255 50.114L60.3582 49.1274C60.0646 48.0437 59.9178 47.5019 59.9916 46.9646C60.0654 46.4272 60.3515 45.9553 60.9237 45.0114L61.4446 44.152C63.4581 40.8304 64.4648 39.1695 63.7924 37.848C63.12 36.5265 61.2139 36.4195 57.4015 36.2056L56.4151 36.1502C55.3318 36.0894 54.7901 36.059 54.3178 35.8131C53.8454 35.5671 53.4959 35.1334 52.7968 34.266L52.1603 33.4764Z" fill="#413B89"/>
</svg>
