<svg width="88" height="64" viewBox="0 0 88 64" fill="none" xmlns="http://www.w3.org/2000/svg">
<path d="M0 0H88V64H0V0Z" fill="#FFA78D"/>
<path opacity="0.5" d="M44.957 13.1665H41.2904C37.8334 13.1665 36.1049 13.1665 35.031 14.2404C33.957 15.3144 33.957 17.0429 33.957 20.4998V24.1665V26.9165H52.2904V24.1665V20.4998C52.2904 17.0429 52.2904 15.3144 51.2164 14.2404C50.1425 13.1665 48.414 13.1665 44.957 13.1665Z" fill="white"/>
<path fill-rule="evenodd" clip-rule="evenodd" d="M45.7554 20.1024C44.1142 19.2074 42.1307 19.2074 40.4894 20.1024L31.7 24.895C29.9327 25.8587 28.833 27.7108 28.833 29.7238V38.7761C28.833 40.7891 29.9327 42.6413 31.7 43.6049L40.4894 48.3976C42.1307 49.2925 44.1142 49.2925 45.7555 48.3976L54.5449 43.6049C56.3122 42.6413 57.4118 40.7891 57.4118 38.7761V29.7238C57.4118 27.7108 56.3122 25.8587 54.5449 24.895L45.7554 20.1024ZM43.1228 28.75C42.602 28.75 42.2537 29.3749 41.557 30.6246L41.3768 30.9479C41.1788 31.3031 41.0799 31.4806 40.9255 31.5978C40.7712 31.715 40.579 31.7584 40.1945 31.8454L39.8445 31.9246C38.4917 32.2307 37.8153 32.3837 37.6544 32.9013C37.4935 33.4188 37.9546 33.958 38.8769 35.0365L39.1155 35.3155C39.3775 35.6219 39.5086 35.7752 39.5675 35.9647C39.6265 36.1543 39.6067 36.3588 39.567 36.7677L39.531 37.1399C39.3915 38.5788 39.3218 39.2983 39.7431 39.6181C40.1644 39.938 40.7978 39.6463 42.0644 39.0631L42.3921 38.9123C42.7521 38.7465 42.932 38.6637 43.1228 38.6637C43.3136 38.6637 43.4935 38.7465 43.8535 38.9123L44.1812 39.0631C45.4478 39.6463 46.0812 39.938 46.5025 39.6181C46.9238 39.2983 46.8541 38.5788 46.7146 37.1399L46.6786 36.7677C46.6389 36.3588 46.6191 36.1543 46.6781 35.9647C46.737 35.7752 46.8681 35.6219 47.1301 35.3155L47.3688 35.0365C48.291 33.958 48.7522 33.4188 48.5912 32.9013C48.4303 32.3837 47.7539 32.2307 46.4011 31.9246L46.0511 31.8454C45.6666 31.7584 45.4744 31.715 45.3201 31.5978C45.1657 31.4806 45.0668 31.3031 44.8688 30.9479L44.6886 30.6246C43.9919 29.3749 43.6436 28.75 43.1228 28.75Z" fill="white"/>
</svg>
