<svg xmlns="http://www.w3.org/2000/svg" viewBox="0 0 57.79 60.83"><defs><style>.cls-1{fill:#434343;}</style></defs><g id="Calque_2" data-name="Calque 2"><g id="Calque_1-2" data-name="Calque 1"><path class="cls-1" d="M40.45.64A2,2,0,0,0,37.05,2V12.59a8.29,8.29,0,0,0,8.36,8.12c2.89,0,6.91,0,10.34,0a1.91,1.91,0,0,0,1.43-3.25C52.8,13.08,45,5.14,40.45.64Z"/><path class="cls-1" d="M54.75,24.91H46A13.1,13.1,0,0,1,32.88,11.83V3a3.05,3.05,0,0,0-3-3H16.94C7.57,0,0,6.08,0,16.94v27C0,54.75,7.57,60.83,16.94,60.83H40.85c9.37,0,16.94-6.08,16.94-16.94V28A3.05,3.05,0,0,0,54.75,24.91Zm-27.37,23H15.21a2.29,2.29,0,0,1,0-4.57H27.38a2.29,2.29,0,0,1,0,4.57Zm6.08-12.17H15.21a2.28,2.28,0,0,1,0-4.56H33.46a2.28,2.28,0,0,1,0,4.56Z"/></g></g></svg>