<svg xmlns="http://www.w3.org/2000/svg" width="73" height="73" viewBox="0 0 73 73" fill="none">
    <path d="M48.058 6.72208C46.8109 5.475 44.6514 6.32667 44.6514 8.06042V18.6758C44.6514 23.1167 48.423 26.7971 53.0159 26.7971C55.9055 26.8275 59.9205 26.8275 63.3576 26.8275C65.0914 26.8275 66.0039 24.7896 64.7872 23.5729C60.4072 19.1625 52.5597 11.2237 48.058 6.72208Z" fill="#434343"/>
    <path d="M62.3545 30.9947H53.5641C46.3553 30.9947 40.4849 25.1243 40.4849 17.9156V9.12516C40.4849 7.45225 39.1162 6.0835 37.4432 6.0835H24.5466C15.1782 6.0835 7.60449 12.1668 7.60449 23.0256V49.9747C7.60449 60.8335 15.1782 66.9168 24.5466 66.9168H48.4541C57.8224 66.9168 65.3962 60.8335 65.3962 49.9747V34.0364C65.3962 32.3635 64.0274 30.9947 62.3545 30.9947ZM34.9795 53.9897H22.8128C21.5657 53.9897 20.5316 52.9556 20.5316 51.7085C20.5316 50.4614 21.5657 49.4272 22.8128 49.4272H34.9795C36.2266 49.4272 37.2607 50.4614 37.2607 51.7085C37.2607 52.9556 36.2266 53.9897 34.9795 53.9897ZM41.0628 41.8231H22.8128C21.5657 41.8231 20.5316 40.7889 20.5316 39.5418C20.5316 38.2947 21.5657 37.2606 22.8128 37.2606H41.0628C42.3099 37.2606 43.3441 38.2947 43.3441 39.5418C43.3441 40.7889 42.3099 41.8231 41.0628 41.8231Z" fill="#434343"/>
</svg>