<svg width="17" height="17" viewBox="0 0 17 17" fill="none" xmlns="http://www.w3.org/2000/svg">
<path d="M14.5 15.1665H2.5C2.22667 15.1665 2 14.9398 2 14.6665C2 14.3932 2.22667 14.1665 2.5 14.1665H14.5C14.7733 14.1665 15 14.3932 15 14.6665C15 14.9398 14.7733 15.1665 14.5 15.1665Z" fill="#292D32"/>
<path d="M13.1804 2.81994C11.887 1.52661 10.6204 1.49328 9.29371 2.81994L8.48704 3.62661C8.42037 3.69328 8.39371 3.79994 8.42038 3.89328C8.92704 5.65994 10.3404 7.07328 12.107 7.57994C12.1337 7.58661 12.1604 7.59328 12.187 7.59328C12.2604 7.59328 12.327 7.56661 12.3804 7.51328L13.1804 6.70661C13.8404 6.05328 14.1604 5.41994 14.1604 4.77994C14.167 4.11994 13.847 3.47994 13.1804 2.81994Z" fill="#292D32"/>
<path d="M10.9066 8.18654C10.7132 8.0932 10.5266 7.99987 10.3466 7.8932C10.1999 7.80654 10.0599 7.7132 9.91989 7.6132C9.80655 7.53987 9.67322 7.4332 9.54655 7.32654C9.53322 7.31987 9.48655 7.27987 9.43322 7.22654C9.21322 7.03987 8.96655 6.79987 8.74655 6.5332C8.72655 6.51987 8.69322 6.4732 8.64655 6.4132C8.57989 6.3332 8.46655 6.19987 8.36655 6.04654C8.28655 5.94654 8.19322 5.79987 8.10655 5.6532C7.99989 5.4732 7.90655 5.2932 7.81322 5.10654V5.10654C7.69085 4.84431 7.34668 4.76641 7.14206 4.97103L3.39322 8.71987C3.30655 8.80654 3.22655 8.9732 3.20655 9.08654L2.84655 11.6399C2.77989 12.0932 2.90655 12.5199 3.18655 12.8065C3.42655 13.0399 3.75989 13.1665 4.11989 13.1665C4.19989 13.1665 4.27989 13.1599 4.35989 13.1465L6.91989 12.7865C7.03989 12.7665 7.20655 12.6865 7.28655 12.5999L11.0416 8.84484C11.2421 8.64432 11.1668 8.29929 10.9066 8.18654V8.18654Z" fill="#292D32"/>
</svg>
