<svg xmlns="http://www.w3.org/2000/svg" xmlns:xlink="http://www.w3.org/1999/xlink" viewBox="0 0 53 53"><defs><style>.cls-1{fill:none;}.cls-2{fill:#e2e2e2;fill-opacity:0.44;}.cls-3{clip-path:url(#clip-path);}.cls-4{fill:#292d32;}</style><clipPath id="clip-path"><rect class="cls-1" x="9" y="12" width="35" height="35"/></clipPath></defs><g id="Calque_2" data-name="Calque 2"><g id="Calque_1-2" data-name="Calque 1"><circle class="cls-2" cx="26.5" cy="26.5" r="26.5"/><g class="cls-3"><path class="cls-4" d="M33.62,26.58a6.94,6.94,0,0,0-6.93,6.93,6.75,6.75,0,0,0,1,3.57,6.92,6.92,0,0,0,12.84-3.57A6.92,6.92,0,0,0,33.62,26.58Zm2.59,8h-1.5v1.56a1.1,1.1,0,0,1-2.19,0V34.58H31a1.1,1.1,0,1,1,0-2.19h1.48V31a1.1,1.1,0,1,1,2.19,0v1.43h1.5a1.1,1.1,0,1,1,0,2.19Z"/><path class="cls-4" d="M39,17.86V21.1a5.59,5.59,0,0,1-1.46,3.4l-.26.23a.79.79,0,0,1-.77.15,6.78,6.78,0,0,0-.88-.25,8.34,8.34,0,0,0-2-.23,9.12,9.12,0,0,0-9.12,9.11,9,9,0,0,0,1.31,4.7,8.82,8.82,0,0,0,2.86,2.93.61.61,0,0,1,.18,1l-.31.23-2,1.33A3,3,0,0,1,22,41.14v-7.8a5.72,5.72,0,0,0-1.16-3.1L15.3,24.35A4.93,4.93,0,0,1,14,21.41V18a3,3,0,0,1,2.9-3.09H36.11A2.93,2.93,0,0,1,39,17.86Z"/></g></g></g></svg>