<svg xmlns="http://www.w3.org/2000/svg" width="37" height="36" viewBox="0 0 37 36" fill="none">
    <g clip-path="url(#clip0_151_2901)">
        <path d="M34.0852 9.40519C32.4756 6.64733 30.2923 4.46393 27.5347 2.8545C24.7766 1.24498 21.7657 0.44043 18.4997 0.44043C15.2341 0.44043 12.2222 1.24523 9.46476 2.8545C6.7069 4.46385 4.52367 6.64733 2.91407 9.40519C1.30472 12.163 0.5 15.1745 0.5 18.4396C0.5 22.3619 1.64432 25.8888 3.93353 29.0214C6.2225 32.1542 9.1795 34.322 12.8043 35.5251C13.2262 35.6034 13.5386 35.5483 13.7417 35.3612C13.9448 35.1739 14.0463 34.9393 14.0463 34.6584C14.0463 34.6115 14.0423 34.1898 14.0345 33.3928C14.0271 32.6976 14.0231 32.0024 14.0227 31.3072L13.4836 31.4005C13.1399 31.4635 12.7063 31.4901 12.1828 31.4826C11.6596 31.4753 11.1164 31.4205 10.554 31.3185C9.99136 31.2174 9.46805 30.9831 8.98364 30.6159C8.49948 30.2487 8.15577 29.7681 7.9526 29.1747L7.71824 28.6354C7.56203 28.2764 7.31609 27.8775 6.9801 27.4403C6.64411 27.0027 6.30434 26.706 5.96064 26.5498L5.79654 26.4323C5.6872 26.3542 5.58573 26.2601 5.49191 26.1508C5.39816 26.0416 5.32798 25.9322 5.2811 25.8227C5.23415 25.7131 5.27306 25.6232 5.39824 25.5527C5.52343 25.4822 5.74967 25.448 6.07794 25.448L6.5465 25.518C6.85902 25.5806 7.24557 25.7677 7.70667 26.0804C8.16751 26.3928 8.54635 26.799 8.84327 27.2988C9.20282 27.9396 9.636 28.4278 10.144 28.7638C10.6517 29.0998 11.1635 29.2675 11.679 29.2675C12.1945 29.2675 12.6398 29.2284 13.0149 29.1507C13.3897 29.0725 13.7413 28.9551 14.0695 28.7989C14.2102 27.7516 14.593 26.9471 15.2178 26.3847C14.3273 26.2911 13.5267 26.1502 12.8155 25.9628C12.1048 25.7751 11.3704 25.4706 10.6127 25.0483C9.8546 24.6266 9.22572 24.103 8.72588 23.4783C8.22596 22.8532 7.81568 22.0327 7.49562 21.0173C7.17539 20.0016 7.01523 18.8298 7.01523 17.5018C7.01523 15.6109 7.63254 14.0018 8.86691 12.6736C8.28868 11.2519 8.34326 9.65827 9.03084 7.89271C9.48397 7.75192 10.156 7.85757 11.0465 8.20899C11.9371 8.56058 12.5892 8.86176 13.0035 9.11148C13.4177 9.36111 13.7496 9.57265 13.9996 9.74422C15.453 9.33813 16.9528 9.13504 18.4995 9.13504C20.0463 9.13504 21.5464 9.33813 22.9999 9.74422L23.8905 9.18199C24.4995 8.80685 25.2187 8.46306 26.0463 8.15055C26.8744 7.8382 27.5077 7.75217 27.9454 7.89295C28.6482 9.6586 28.7108 11.2522 28.1324 12.6738C29.3667 14.002 29.9843 15.6115 29.9843 17.502C29.9843 18.8301 29.8235 20.0055 29.5038 21.0291C29.1837 22.0528 28.7699 22.8725 28.2622 23.49C27.754 24.1074 27.1211 24.6269 26.3634 25.0485C25.6056 25.4705 24.8709 25.775 24.1602 25.9627C23.4491 26.1503 22.6485 26.2914 21.758 26.3851C22.5702 27.088 22.9763 28.1974 22.9763 29.7129V34.6577C22.9763 34.9386 23.074 35.1731 23.2696 35.3605C23.4649 35.5476 23.7733 35.6027 24.1952 35.5243C27.8205 34.3215 30.7775 32.1536 33.0664 29.0207C35.355 25.8882 36.4998 22.3612 36.4998 18.439C36.4989 15.1742 35.6938 12.163 34.0852 9.40519Z" fill="black"/>
    </g>
    <defs>
        <clipPath id="clip0_151_2901">
            <rect width="36" height="36" fill="white" transform="translate(0.5)"/>
        </clipPath>
    </defs>
</svg>