<svg xmlns="http://www.w3.org/2000/svg" width="35" height="35" viewBox="0 0 35 35" fill="none">
    <path d="M33.223 13.1319C33.0568 12.6223 32.7445 12.1729 32.3249 11.8394C31.9054 11.5059 31.3971 11.3031 30.8632 11.2561L23.0703 10.5821L20.0214 3.31682C19.8117 2.82275 19.4612 2.40133 19.0136 2.10509C18.566 1.80884 18.0412 1.65088 17.5044 1.65088C16.9677 1.65088 16.4428 1.80884 15.9953 2.10509C15.5477 2.40133 15.1972 2.82275 14.9874 3.31682L11.9345 10.5821L4.14155 11.2561C3.60478 11.3005 3.09308 11.5025 2.67068 11.8367C2.24827 12.1709 1.93396 12.6223 1.76719 13.1345C1.60042 13.6466 1.58861 14.1966 1.73325 14.7154C1.8779 15.2343 2.17254 15.6988 2.58022 16.0508L8.50288 21.2188L6.72553 28.9078C6.60364 29.4314 6.63879 29.9793 6.82658 30.483C7.01438 30.9867 7.34648 31.4239 7.78138 31.7399C8.21628 32.0559 8.73468 32.2367 9.27177 32.2597C9.80886 32.2827 10.3408 32.1468 10.8011 31.8692L17.5003 27.8004L24.1996 31.8692C24.6598 32.1464 25.1916 32.2819 25.7285 32.2587C26.2653 32.2355 26.7834 32.0546 27.2181 31.7387C27.6527 31.4228 27.9847 30.9858 28.1724 30.4823C28.3602 29.9788 28.3954 29.4312 28.2738 28.9078L26.4964 21.2188L32.4191 16.0508C32.8257 15.6975 33.1189 15.232 33.2619 14.7127C33.4049 14.1935 33.3914 13.6435 33.223 13.1319ZM24.097 18.9588C23.7221 19.285 23.4431 19.7073 23.2902 20.1801C23.1372 20.653 23.116 21.1586 23.2289 21.6426L24.7861 28.3856L18.9154 24.8199C18.489 24.5603 17.9995 24.423 17.5003 24.423C17.0012 24.423 16.5116 24.5603 16.0853 24.8199L10.2146 28.3856L11.7718 21.6426C11.8847 21.1586 11.8635 20.653 11.7105 20.1801C11.5576 19.7073 11.2786 19.285 10.9037 18.9588L5.69604 14.4156L12.5511 13.8223C13.0475 13.7798 13.5228 13.6019 13.9251 13.3081C14.3274 13.0142 14.6414 12.6156 14.833 12.1557L17.5003 5.79963L20.1677 12.1557C20.3592 12.6156 20.6733 13.0142 21.0756 13.3081C21.4779 13.6019 21.9532 13.7798 22.4496 13.8223L29.3046 14.4156L24.097 18.9588Z" fill="#FFE500"/>
</svg>