<svg xmlns="http://www.w3.org/2000/svg" viewBox="0 0 34.15 37.64"><defs><style>.cls-1{fill:#ff0f00;}</style></defs><g id="Calque_2" data-name="Calque 2"><g id="Calque_1-2" data-name="Calque 1"><path class="cls-1" d="M32.94,7c-2.82-.28-5.63-.49-8.47-.65v0L24.09,4c-.27-1.62-.65-4-4.75-4H14.76C10.68,0,10.3,2.31,10,4L9.65,6.25c-1.63.1-3.26.21-4.88.36L1.2,7a1.31,1.31,0,1,0,.24,2.6L5,9.22a139.39,139.39,0,0,1,27.69.37h.14A1.31,1.31,0,0,0,32.94,7Z"/><path class="cls-1" d="M29.72,12.06a2.2,2.2,0,0,0-1.59-.68H6a2.15,2.15,0,0,0-1.59.68,2.23,2.23,0,0,0-.6,1.64l1.09,18c.19,2.66.43,6,6.54,6H22.69c6.1,0,6.35-3.31,6.54-6l1.09-17.94A2.29,2.29,0,0,0,29.72,12.06ZM20,28.88H14.15a1.32,1.32,0,1,1,0-2.63H20a1.32,1.32,0,1,1,0,2.63Zm1.47-7H12.69a1.32,1.32,0,0,1,0-2.63h8.75a1.32,1.32,0,1,1,0,2.63Z"/></g></g></svg>